<?xml version="1.0" encoding="UTF-8"?>
<svg version="1.1" xmlns="http://www.w3.org/2000/svg" width="642" height="642">
<path d="M0 0 C211.86 0 423.72 0 642 0 C642 211.86 642 423.72 642 642 C430.14 642 218.28 642 0 642 C0 430.14 0 218.28 0 0 Z " fill="#EFCD60" transform="translate(0,0)"/>
<path d="M0 0 C2.99035985 0.01070854 5.98011746 0.00005981 8.97045898 -0.01269531 C22.03485489 -0.02245442 34.65176136 0.35460446 47.18334961 4.47949219 C49.03654651 5.08809544 50.90973222 5.63594747 52.78881836 6.15917969 C57.08807666 7.41424267 61.28478401 8.87600934 65.49975586 10.38574219 C66.27899414 10.66289063 67.05823242 10.94003906 67.86108398 11.22558594 C69.76216184 11.90204309 71.66230702 12.58112044 73.56225586 13.26074219 C73.56225586 13.92074219 73.56225586 14.58074219 73.56225586 15.26074219 C74.24674805 15.35226563 74.93124023 15.44378906 75.63647461 15.53808594 C79.26281949 16.4337786 82.11272893 18.01100501 85.37475586 19.82324219 C85.97223633 20.15259766 86.5697168 20.48195312 87.18530273 20.82128906 C88.64759584 21.62847486 90.10539576 22.44379135 91.56225586 23.26074219 C91.56225586 23.92074219 91.56225586 24.58074219 91.56225586 25.26074219 C92.26350586 25.36386719 92.96475586 25.46699219 93.68725586 25.57324219 C96.95363233 26.35433221 99.60944106 27.68132962 102.56225586 29.26074219 C102.56225586 29.92074219 102.56225586 30.58074219 102.56225586 31.26074219 C103.08948242 31.49148437 103.61670898 31.72222656 104.15991211 31.95996094 C107.34909264 33.68678552 110.1432647 35.85660505 112.99975586 38.07324219 C113.55985352 38.49927734 114.11995117 38.9253125 114.69702148 39.36425781 C118.25374933 42.10754498 121.42843796 45.03057713 124.56225586 48.26074219 C125.85196289 49.49824219 125.85196289 49.49824219 127.16772461 50.76074219 C128.01979492 51.58574219 128.87186523 52.41074219 129.74975586 53.26074219 C131.03946289 54.49824219 131.03946289 54.49824219 132.35522461 55.76074219 C134.56225586 58.26074219 134.56225586 58.26074219 135.61303711 60.94824219 C136.80427737 63.85035837 137.78374524 63.99497624 140.56225586 65.26074219 C142.48413086 67.28417969 142.48413086 67.28417969 144.31225586 69.63574219 C144.92584961 70.40660156 145.53944336 71.17746094 146.17163086 71.97167969 C147.56225586 74.26074219 147.56225586 74.26074219 147.56225586 78.26074219 C148.22225586 78.26074219 148.88225586 78.26074219 149.56225586 78.26074219 C153.75340862 83.78356664 157.02687509 89.82554685 159.65991211 96.22167969 C160.63323668 98.55410579 160.63323668 98.55410579 162.68725586 101.63574219 C165.37194369 106.1066987 165.86249379 111.16905241 166.56225586 116.26074219 C167.22225586 116.26074219 167.88225586 116.26074219 168.56225586 116.26074219 C170.1874145 119.20211004 170.99215191 121.80684707 171.56225586 125.11230469 C171.72725586 126.046875 171.89225586 126.98144531 172.06225586 127.94433594 C172.22725586 128.915 172.39225586 129.88566406 172.56225586 130.88574219 C172.8947089 132.79474987 173.22803763 134.70360526 173.56225586 136.61230469 C173.725 137.56862793 173.88774414 138.52495117 174.05541992 139.51025391 C174.36640622 141.19790886 174.71436022 142.87987307 175.1237793 144.54638672 C177.03163938 152.42098569 176.86380849 160.31779725 176.82299805 168.37158203 C176.81236744 170.85962817 176.82289134 173.34693801 176.83569336 175.83496094 C176.84433405 186.0785012 176.38570005 196.15737287 174.56225586 206.26074219 C174.23225586 206.59074219 173.90225586 206.92074219 173.56225586 207.26074219 C173.22066499 208.69564676 172.92872249 210.14247125 172.65991211 211.59277344 C172.40757812 212.91438477 172.40757812 212.91438477 172.15014648 214.26269531 C171.80213451 216.12436534 171.4557585 217.98634199 171.11108398 219.84863281 C170.94157227 220.73357422 170.77206055 221.61851562 170.59741211 222.53027344 C170.44667236 223.34085205 170.29593262 224.15143066 170.140625 224.98657227 C169.55340911 227.29552796 168.70538772 229.17768201 167.56225586 231.26074219 C166.90225586 231.26074219 166.24225586 231.26074219 165.56225586 231.26074219 C165.47975586 232.23011719 165.39725586 233.19949219 165.31225586 234.19824219 C164.23678042 241.71142269 159.96431224 248.57813145 156.56225586 255.26074219 C155.90225586 255.26074219 155.24225586 255.26074219 154.56225586 255.26074219 C154.4475293 256.00453125 154.33280273 256.74832031 154.21459961 257.51464844 C153.55111714 260.30763153 152.75500907 261.86601026 151.12475586 264.19824219 C150.59108398 264.96523438 150.05741211 265.73222656 149.50756836 266.52246094 C148.86561523 267.42609375 148.22366211 268.32972656 147.56225586 269.26074219 C146.74664275 270.4335655 145.93157282 271.60676668 145.11694336 272.78027344 C144.24538805 274.02435229 143.37299125 275.26784203 142.49975586 276.51074219 C142.08862549 277.10105225 141.67749512 277.6913623 141.25390625 278.29956055 C138.63982769 281.97903869 135.81810552 285.11234631 132.56225586 288.26074219 C131.60942451 289.372787 130.66964765 290.49629919 129.74975586 291.63574219 C126.37993764 295.61904014 122.54065122 298.90325246 118.56225586 302.26074219 C117.90354492 302.84597656 117.24483398 303.43121094 116.56616211 304.03417969 C115.94612305 304.58332031 115.32608398 305.13246094 114.68725586 305.69824219 C114.13295898 306.19195312 113.57866211 306.68566406 113.00756836 307.19433594 C111.56225586 308.26074219 111.56225586 308.26074219 109.56225586 308.26074219 C109.56225586 308.92074219 109.56225586 309.58074219 109.56225586 310.26074219 C107.40209961 311.81152344 107.40209961 311.81152344 104.49975586 313.57324219 C101.16745805 315.62815917 97.89551822 317.67976062 94.74975586 320.01074219 C91.74133235 322.13433525 88.88772753 323.69581434 85.56225586 325.26074219 C84.73983398 325.68742187 83.91741211 326.11410156 83.07006836 326.55371094 C81.73588867 327.24400391 81.73588867 327.24400391 80.37475586 327.94824219 C79.53557617 328.38523437 78.69639648 328.82222656 77.83178711 329.27246094 C75.56225586 330.26074219 75.56225586 330.26074219 72.56225586 330.26074219 C72.56225586 330.92074219 72.56225586 331.58074219 72.56225586 332.26074219 C61.48760643 336.2841167 50.4707005 339.35355655 38.91748047 341.69897461 C37.50221069 341.98671753 37.50221069 341.98671753 36.05834961 342.28027344 C35.21457764 342.4463208 34.37080566 342.61236816 33.50146484 342.78344727 C31.56874265 343.08171555 31.56874265 343.08171555 30.56225586 344.26074219 C22.06635335 345.65294162 13.33990515 345.41541354 4.75537109 345.39111328 C2.50017605 345.38574319 0.24517935 345.39109519 -2.01000977 345.39746094 C-21.98065376 345.41009589 -21.98065376 345.41009589 -29.43774414 342.26074219 C-32.29630491 341.71170291 -35.17996314 341.34732718 -38.06274414 340.94824219 C-45.58077546 339.80527782 -51.65562553 337.7376511 -58.43774414 334.26074219 C-61.05939881 333.18556921 -63.69668447 332.16520489 -66.34399414 331.15527344 C-68.43774414 330.26074219 -68.43774414 330.26074219 -71.43774414 328.26074219 C-71.43774414 363.90074219 -71.43774414 399.54074219 -71.43774414 436.26074219 C-103.44774414 436.26074219 -135.45774414 436.26074219 -168.43774414 436.26074219 C-168.50399034 400.78641179 -168.55934043 365.31214014 -168.59094013 329.8377655 C-168.59469185 325.64127389 -168.59857486 321.44478242 -168.60253906 317.24829102 C-168.60332599 316.41291216 -168.60411293 315.57753331 -168.6049237 314.71683995 C-168.61794616 301.22431466 -168.64158242 287.73182807 -168.66920253 274.23932566 C-168.69734498 260.37511419 -168.713939 246.51092285 -168.72000962 232.64668399 C-168.72410782 224.10485368 -168.7370095 215.56313278 -168.76149354 207.02133618 C-168.77746012 201.14873121 -168.78212005 195.27618207 -168.77824827 189.40355702 C-168.77634351 186.02496678 -168.78076512 182.64671824 -168.79536057 179.26813698 C-168.8525067 165.34774525 -168.546491 151.93057472 -165.82919848 138.24781477 C-165.41386907 136.13954926 -165.03734021 134.02671887 -164.66783428 131.90996838 C-163.56761756 125.68988437 -162.26858423 120.08066185 -159.46118164 114.41308594 C-158.32005657 112.01323894 -157.47965546 109.58900886 -156.62524414 107.07324219 C-152.78214508 96.3395866 -147.43815463 85.31140482 -140.43774414 76.26074219 C-139.77774414 76.26074219 -139.11774414 76.26074219 -138.43774414 76.26074219 C-138.21344727 75.40222656 -137.98915039 74.54371094 -137.75805664 73.65917969 C-136.23495626 69.73877339 -134.06838916 66.98443781 -131.31274414 63.88574219 C-130.78994873 63.28922852 -130.26715332 62.69271484 -129.72851562 62.078125 C-112.39095675 42.56800926 -90.09075062 20.73756854 -64.12524414 13.57324219 C-63.30411133 13.3425 -62.48297852 13.11175781 -61.63696289 12.87402344 C-60.54834961 12.57044922 -60.54834961 12.57044922 -59.43774414 12.26074219 C-58.44774414 11.93074219 -57.45774414 11.60074219 -56.43774414 11.26074219 C-56.43774414 10.60074219 -56.43774414 9.94074219 -56.43774414 9.26074219 C-55.71071289 9.09058594 -54.98368164 8.92042969 -54.23461914 8.74511719 C-48.88639561 7.45605818 -43.68409241 6.04615606 -38.50024414 4.19824219 C-25.83330042 -0.05745462 -13.22110533 -0.05627384 0 0 Z " fill="#010101" transform="translate(337.437744140625,115.7392578125)"/>
<path d="M0 0 C90.42 0 180.84 0 274 0 C267.26333196 7.85944605 267.26333196 7.85944605 264.2734375 11.0078125 C263.6340625 11.68457031 262.9946875 12.36132812 262.3359375 13.05859375 C261.02104313 14.44420953 259.70593652 15.82962394 258.390625 17.21484375 C255.09513808 20.70379043 251.96054471 24.21708175 249 28 C247.33333333 29.66666667 245.66666667 31.33333333 244 33 C242.45335521 34.76536223 240.93620458 36.55188535 239.4296875 38.3515625 C238.01740047 39.97993716 236.54018295 41.49293926 235 43 C233.85872377 44.14127623 232.71768373 45.28279011 231.578125 46.42578125 C230.36436669 47.63653521 229.14442911 48.84109695 227.921875 50.04296875 C224.38577185 53.53697543 220.91268184 57.02744551 217.6875 60.8125 C214.62497068 64.38902026 211.34697113 67.69363248 208 71 C203.4499039 75.50036444 199.1339281 80.11073689 195 85 C191.12951894 89.49177303 187.19390895 93.80609105 183 98 C182.0141046 99.16098611 181.03534142 100.32805373 180.0625 101.5 C178.14163918 103.77857215 176.38478764 105.51049536 174.0625 107.4375 C170.25638203 110.62221095 167.18885462 114.21233331 164 118 C162.95983569 119.23043827 161.91824906 120.4596761 160.875 121.6875 C160.43929687 122.20699219 160.00359375 122.72648437 159.5546875 123.26171875 C156.70558379 126.44727441 153.6131799 129.39569248 150.5703125 132.39453125 C144.49512359 138.40178674 138.7975163 144.58982536 133.375 151.1875 C131.03453529 153.95910295 128.59423252 156.46472731 126 159 C119.65118369 165.22438103 119.65118369 165.22438103 113.6875 171.8125 C110.14124677 175.9539286 106.28549161 179.74257706 102.40966797 183.57080078 C99.00946468 186.94536634 95.8125184 190.42470465 92.70703125 194.07421875 C90.72400205 196.31136611 88.62806614 198.40054652 86.5 200.5 C81.46968842 205.47042691 76.86109096 210.72617188 72.375 216.1875 C70.03632907 218.95697873 67.66949414 221.54695133 65 224 C64.34 224 63.68 224 63 224 C62.76152344 224.56847656 62.52304687 225.13695312 62.27734375 225.72265625 C60.246875 229.34272744 57.18362197 231.84912252 54.19140625 234.68359375 C52.00877914 236.99072009 50.62574116 239.28897854 49 242 C47.1328125 243.80859375 47.1328125 243.80859375 45.125 245.4375 C41.61719657 248.39380234 38.87042407 251.43136467 36 255 C34.34718687 256.680406 32.67894816 258.345706 31 260 C24.59515957 266.31216589 18.31131364 272.63621862 12.671875 279.65234375 C9.73025699 283.31074842 6.63802249 286.07376452 3 289 C2.01 289.99 1.02 290.98 0 292 C0 195.64 0 99.28 0 0 Z " fill="#FCFCFC" transform="translate(0,0)"/>
<path d="M0 0 C0.33 0 0.66 0 1 0 C1 96.36 1 192.72 1 292 C-89.42 292 -179.84 292 -273 292 C-268.7358125 287.02511458 -264.42675973 282.15564171 -259.96875 277.36328125 C-257.79983599 275.01668785 -255.74152439 272.66480371 -253.7890625 270.1328125 C-253.19867188 269.42898438 -252.60828125 268.72515625 -252 268 C-251.34 268 -250.68 268 -250 268 C-250 267.34 -250 266.68 -250 266 C-248.37531008 264.27049138 -246.71419474 262.63862699 -245 261 C-243.53708465 259.56716329 -242.07915514 258.12922646 -240.625 256.6875 C-239.56152344 255.64142578 -239.56152344 255.64142578 -238.4765625 254.57421875 C-235.84465343 251.83852777 -233.36697118 248.99993569 -230.87841797 246.13452148 C-227.74833392 242.57768176 -224.50188672 239.13274857 -221.25 235.6875 C-220.20501343 234.57773804 -220.20501343 234.57773804 -219.13891602 233.44555664 C-214.29530277 228.32073373 -209.34831301 223.32297414 -204.3359375 218.36328125 C-200.25885257 214.23847125 -196.46782864 209.9126252 -192.9375 205.3125 C-190.57236578 202.48959787 -187.8300332 200.34832542 -185 198 C-183.99426222 196.67098936 -182.99204592 195.33926199 -182 194 C-181.34 194 -180.68 194 -180 194 C-179.72800781 193.41089844 -179.45601563 192.82179688 -179.17578125 192.21484375 C-178.0244625 190.04608053 -176.80016325 188.40493585 -175.1875 186.5625 C-174.70667969 186.00691406 -174.22585938 185.45132813 -173.73046875 184.87890625 C-170.71513128 181.60491681 -167.51922008 178.51232778 -164.3515625 175.38671875 C-159.65677932 170.73901792 -155.09736525 166.05662255 -150.80859375 161.02734375 C-147.82716225 157.68530714 -144.59906354 154.5918241 -141.4140625 151.4453125 C-138.71248706 148.70876521 -136.20921265 145.85020634 -133.7109375 142.9296875 C-131.88200137 140.86691479 -129.96419542 138.9340928 -128 137 C-123.52858928 132.58901375 -119.4190811 127.91119809 -115.40625 123.08203125 C-113.23118379 120.47971989 -111.22673888 118.18022834 -108.5625 116.0625 C-104.89929533 113.11406698 -102.02686034 109.58391003 -99 106 C-97.95960741 104.76975474 -96.91801497 103.54052277 -95.875 102.3125 C-95.43929687 101.79300781 -95.00359375 101.27351563 -94.5546875 100.73828125 C-91.70558379 97.55272559 -88.6131799 94.60430752 -85.5703125 91.60546875 C-80.48538576 86.57740221 -75.6176651 81.45930849 -71 76 C-63.78361669 67.4683153 -63.78361669 67.4683153 -60 64 C-59.34 64 -58.68 64 -58 64 C-57.72800781 63.41089844 -57.45601562 62.82179688 -57.17578125 62.21484375 C-56.0244625 60.04608053 -54.80016325 58.40493585 -53.1875 56.5625 C-52.70667969 56.00691406 -52.22585938 55.45132813 -51.73046875 54.87890625 C-48.65910846 51.54408842 -45.40096567 48.39597439 -42.17578125 45.2109375 C-41.2213417 44.26563759 -40.26691468 43.32032502 -39.3125 42.375 C-38.82716797 41.89804687 -38.34183594 41.42109375 -37.84179688 40.9296875 C-35.60414685 38.70746954 -33.7575391 36.63630864 -32 34 C-31.34 34 -30.68 34 -30 34 C-29.62875 33.13568359 -29.62875 33.13568359 -29.25 32.25390625 C-27.81305755 29.6629194 -26.14041667 27.97955193 -24 25.9375 C-21.62557202 23.66346144 -19.83652048 21.75478071 -18 19 C-17.34 19 -16.68 19 -16 19 C-15.75894531 18.43023437 -15.51789063 17.86046875 -15.26953125 17.2734375 C-13.75271334 14.55716666 -11.93237093 12.77554863 -9.6875 10.625 C-6.9803623 7.98761142 -4.37939105 5.37510596 -2 2.4375 C-1.34 1.633125 -0.68 0.82875 0 0 Z " fill="#FBFBFB" transform="translate(641,350)"/>
<path d="M0 0 C3.32543451 1.73325678 6.69037571 3.39405443 10.09375 4.96875 C12.87604205 6.47392439 14.77120225 8.77120225 17 11 C18.175625 11.6496875 18.175625 11.6496875 19.375 12.3125 C23.33678456 14.8593615 26.02374233 18.38899543 29 22 C30.2065625 23.423125 30.2065625 23.423125 31.4375 24.875 C33 27 33 27 33 29 C33.66 29 34.32 29 35 29 C35.268125 29.763125 35.53625 30.52625 35.8125 31.3125 C36.98525491 33.96662954 37.95681362 35.03854108 40 37 C42.55008244 40.62896347 43.48867459 43.60260149 44 48 C44.66 48 45.32 48 46 48 C46.99 53.445 46.99 53.445 48 59 C48.66 59 49.32 59 50 59 C51.59290189 67.17878077 52.35652216 75.04574777 52.3125 83.375 C52.30831055 84.46699707 52.30412109 85.55899414 52.29980469 86.68408203 C52.12867436 98.93082376 49.60930907 109.64449911 45 121 C44.57267578 122.13501953 44.57267578 122.13501953 44.13671875 123.29296875 C41.46548262 129.94164018 37.34246016 135.34752392 33 141 C32.00806641 142.33611328 32.00806641 142.33611328 30.99609375 143.69921875 C27.45921274 148.40275363 27.45921274 148.40275363 26 150 C25.34 150 24.68 150 24 150 C23.67 150.99 23.34 151.98 23 153 C19.21164939 156.26887778 15.09066264 159.12214689 11 162 C10.01128906 162.69609375 9.02257812 163.3921875 8.00390625 164.109375 C2.97206486 167.48719918 -0.87145239 169.86381005 -7 170 C-7 170.66 -7 171.32 -7 172 C-7.99 172 -8.98 172 -10 172 C-10 172.66 -10 173.32 -10 174 C-25.37142021 178.70107446 -25.37142021 178.70107446 -33 179 C-34.66675781 179.09474609 -34.66675781 179.09474609 -36.3671875 179.19140625 C-51.71563316 179.67008011 -67.38005597 177.33569696 -81 170 C-82.38907319 169.38044877 -83.78426022 168.77425904 -85.1875 168.1875 C-86.115625 167.795625 -87.04375 167.40375 -88 167 C-88 166.34 -88 165.68 -88 165 C-88.825 164.79375 -89.65 164.5875 -90.5 164.375 C-99.14711065 160.97792081 -105.30560698 154.11799127 -111 147 C-111.845625 146.175 -112.69125 145.35 -113.5625 144.5 C-119 138.92307692 -119 138.92307692 -119 135 C-119.66 135 -120.32 135 -121 135 C-122.4606285 132.35261084 -123 131.10551666 -123 128 C-123.66 128 -124.32 128 -125 128 C-126.6837361 124.00694997 -128.34902034 120.00670586 -130 116 C-130.31839844 115.23042969 -130.63679687 114.46085937 -130.96484375 113.66796875 C-138.947547 93.53249338 -135.76470067 63.84631131 -127.4375 44.33984375 C-123.77868272 36.51912181 -123.77868272 36.51912181 -120 34 C-119.195625 32.2675 -119.195625 32.2675 -118.375 30.5 C-114.68186458 22.70180251 -107.91811231 16.0620334 -101 11 C-100.34 11 -99.68 11 -99 11 C-99 10.34 -99 9.68 -99 9 C-97.3203125 7.7109375 -97.3203125 7.7109375 -95.125 6.375 C-94.40570313 5.92898437 -93.68640625 5.48296875 -92.9453125 5.0234375 C-91 4 -91 4 -89 4 C-89 3.34 -89 2.68 -89 2 C-87.56445975 1.49440092 -86.1264798 0.9957251 -84.6875 0.5 C-83.88699219 0.2215625 -83.08648437 -0.056875 -82.26171875 -0.34375 C-80 -1 -80 -1 -77 -1 C-77 -1.66 -77 -2.32 -77 -3 C-73.535 -3.495 -73.535 -3.495 -70 -4 C-70 -4.66 -70 -5.32 -70 -6 C-49.68432267 -12.0947032 -18.23077891 -11.99393349 0 0 Z " fill="#FCFCFC" transform="translate(383,204)"/>
<path d="M0 0 C1.44297339 0.01869226 2.88601102 0.0329075 4.32907104 0.0428772 C8.09550649 0.08074523 11.85797684 0.17866917 15.62286377 0.28991699 C19.47719691 0.39291677 23.33218221 0.43803325 27.1875 0.48828125 C34.72835462 0.59496893 42.26596196 0.76522324 49.8046875 0.9765625 C46.63014605 4.7122963 43.45502953 8.42848596 40.078125 11.984375 C39.43875 12.66113281 38.799375 13.33789062 38.140625 14.03515625 C36.82573063 15.42077203 35.51062402 16.80618644 34.1953125 18.19140625 C30.89982558 21.68035293 27.76523221 25.19364425 24.8046875 28.9765625 C23.13802083 30.64322917 21.47135417 32.30989583 19.8046875 33.9765625 C18.25804271 35.74192473 16.74089208 37.52844785 15.234375 39.328125 C13.82208797 40.95649966 12.34487045 42.46950176 10.8046875 43.9765625 C9.66341127 45.11783873 8.52237123 46.25935261 7.3828125 47.40234375 C6.16905419 48.61309771 4.94911661 49.81765945 3.7265625 51.01953125 C0.19045935 54.51353793 -3.28263066 58.00400801 -6.5078125 61.7890625 C-9.57034182 65.36558276 -12.84834137 68.67019498 -16.1953125 71.9765625 C-20.7454086 76.47692694 -25.0613844 81.08729939 -29.1953125 85.9765625 C-33.06579356 90.46833553 -37.00140355 94.78265355 -41.1953125 98.9765625 C-42.1812079 100.13754861 -43.15997108 101.30461623 -44.1328125 102.4765625 C-46.05367332 104.75513465 -47.81052486 106.48705786 -50.1328125 108.4140625 C-53.93893047 111.59877345 -57.00645788 115.18889581 -60.1953125 118.9765625 C-61.23547681 120.20700077 -62.27706344 121.4362386 -63.3203125 122.6640625 C-63.75601563 123.18355469 -64.19171875 123.70304687 -64.640625 124.23828125 C-67.48972871 127.42383691 -70.5821326 130.37225498 -73.625 133.37109375 C-79.70018891 139.37834924 -85.3977962 145.56638786 -90.8203125 152.1640625 C-93.16077721 154.93566545 -95.60107998 157.44128981 -98.1953125 159.9765625 C-104.54412881 166.20094353 -104.54412881 166.20094353 -110.5078125 172.7890625 C-114.05406573 176.9304911 -117.90982089 180.71913956 -121.78564453 184.54736328 C-125.18584782 187.92192884 -128.3827941 191.40126715 -131.48828125 195.05078125 C-133.47131045 197.28792861 -135.56724636 199.37710902 -137.6953125 201.4765625 C-142.72562408 206.44698941 -147.33422154 211.70273438 -151.8203125 217.1640625 C-154.15898343 219.93354123 -156.52581836 222.52351383 -159.1953125 224.9765625 C-159.8553125 224.9765625 -160.5153125 224.9765625 -161.1953125 224.9765625 C-161.43378906 225.54503906 -161.67226562 226.11351562 -161.91796875 226.69921875 C-163.9484375 230.31928994 -167.01169053 232.82568502 -170.00390625 235.66015625 C-172.18653336 237.96728259 -173.56957134 240.26554104 -175.1953125 242.9765625 C-177.0625 244.78515625 -177.0625 244.78515625 -179.0703125 246.4140625 C-182.57811593 249.37036484 -185.32488843 252.40792717 -188.1953125 255.9765625 C-189.84812563 257.6569685 -191.51636434 259.3222685 -193.1953125 260.9765625 C-199.60015293 267.28872839 -205.88399886 273.61278112 -211.5234375 280.62890625 C-214.46505551 284.28731092 -217.55729001 287.05032702 -221.1953125 289.9765625 C-222.20583178 290.96593138 -223.20853635 291.96351125 -224.1953125 292.9765625 C-224.40450824 283.87509842 -224.56408671 274.7744705 -224.66162205 265.67112064 C-224.70845286 261.44320906 -224.77188836 257.21695047 -224.87426758 252.98999023 C-224.97258187 248.904957 -225.0259761 244.82150575 -225.04920769 240.73538017 C-225.06574604 239.18234805 -225.09804475 237.62939566 -225.14688301 236.07704353 C-225.5136332 223.92849373 -225.5136332 223.92849373 -222.2482605 219.09371948 C-220.00587977 216.84791836 -217.69418733 214.92601839 -215.1953125 212.9765625 C-214.05960236 211.73383813 -212.94892807 210.4669819 -211.8828125 209.1640625 C-208.24584064 204.90949165 -204.28312355 201.00873114 -200.28198242 197.1003418 C-197.9580217 194.8153951 -196.01109475 192.70023588 -194.1953125 189.9765625 C-193.5353125 189.9765625 -192.8753125 189.9765625 -192.1953125 189.9765625 C-191.958125 189.41066406 -191.7209375 188.84476563 -191.4765625 188.26171875 C-189.91432726 185.47541504 -187.99793807 183.62323736 -185.6953125 181.4140625 C-183.16722097 178.980364 -181.14858316 176.90646849 -179.1953125 173.9765625 C-178.5353125 173.9765625 -177.8753125 173.9765625 -177.1953125 173.9765625 C-176.5353125 172.6565625 -175.8753125 171.3365625 -175.1953125 169.9765625 C-174.5353125 169.9765625 -173.8753125 169.9765625 -173.1953125 169.9765625 C-172.94136719 169.39390625 -172.68742187 168.81125 -172.42578125 168.2109375 C-171.06210917 165.73468217 -169.55306047 164.17135624 -167.5078125 162.2265625 C-164.81526898 159.60652913 -162.25704871 156.96082067 -159.8203125 154.1015625 C-156.21412703 149.89573418 -152.29602903 146.04265198 -148.33203125 142.17578125 C-146.0600412 139.97078185 -146.0600412 139.97078185 -144.1953125 136.9765625 C-143.5353125 136.9765625 -142.8753125 136.9765625 -142.1953125 136.9765625 C-141.95296875 136.40550781 -141.710625 135.83445313 -141.4609375 135.24609375 C-139.95911958 132.55301902 -138.17104787 130.79516626 -135.9453125 128.6640625 C-133.05306468 125.85099055 -130.32199034 123.02906372 -127.7578125 119.9140625 C-126.9121875 118.9446875 -126.0665625 117.9753125 -125.1953125 116.9765625 C-124.5353125 116.9765625 -123.8753125 116.9765625 -123.1953125 116.9765625 C-122.94136719 116.39390625 -122.68742187 115.81125 -122.42578125 115.2109375 C-121.06210917 112.73468217 -119.55306047 111.17135624 -117.5078125 109.2265625 C-114.81526898 106.60652913 -112.25704871 103.96082067 -109.8203125 101.1015625 C-106.29054711 96.9915617 -102.46162008 93.22756727 -98.609375 89.421875 C-95.91370995 86.69131461 -93.41561588 83.83908517 -90.921875 80.92578125 C-87.3687709 76.91447142 -83.48709837 73.21599794 -79.65625 69.47265625 C-78.04789446 67.82559697 -76.56309864 66.10396362 -75.0703125 64.3515625 C-71.60442695 60.3536007 -67.90527782 56.64460106 -64.11328125 52.95703125 C-62.03214183 50.92720973 -62.03214183 50.92720973 -60.1953125 47.9765625 C-59.5353125 47.9765625 -58.8753125 47.9765625 -58.1953125 47.9765625 C-57.94136719 47.39390625 -57.68742188 46.81125 -57.42578125 46.2109375 C-56.06210917 43.73468217 -54.55306047 42.17135624 -52.5078125 40.2265625 C-49.81526898 37.60652913 -47.25704871 34.96082067 -44.8203125 32.1015625 C-41.21412703 27.89573418 -37.29602903 24.04265198 -33.33203125 20.17578125 C-31.0600412 17.97078185 -31.0600412 17.97078185 -29.1953125 14.9765625 C-28.5353125 14.9765625 -27.8753125 14.9765625 -27.1953125 14.9765625 C-26.95142792 14.4235849 -26.70754333 13.8706073 -26.45626831 13.3008728 C-20.21050818 1.78811042 -12.38093344 -0.47594325 0 0 Z " fill="#030302" transform="translate(224.1953125,-0.9765625)"/>
<path d="M0 0 C0.33 0 0.66 0 1 0 C1.25601605 9.06674693 1.45088273 18.13223179 1.56993389 27.20181751 C1.62710498 31.41441711 1.70449676 35.62452688 1.82983398 39.83569336 C1.95026117 43.90784924 2.01530535 47.97762751 2.04364967 52.05142784 C2.06381843 53.59735216 2.1032078 55.1431608 2.16303062 56.68805885 C2.63507408 69.39563059 2.63507408 69.39563059 -1.39022827 74.32821655 C-4.04408393 77.14605117 -7.00275052 79.55436711 -10 82 C-11.2811678 83.36728189 -12.53946164 84.75730856 -13.75 86.1875 C-14.29140625 86.81785156 -14.8328125 87.44820313 -15.390625 88.09765625 C-16.50660524 89.41678824 -17.62108589 90.73718978 -18.734375 92.05859375 C-22.01411415 95.89704953 -25.35163178 99.22735537 -29.2421875 102.4375 C-33.50390689 106.22569501 -37.01089233 110.79410036 -40.625 115.1875 C-43.38061051 118.45072297 -46.37786403 121.39828761 -49.41552734 124.39770508 C-56.61209801 131.43177411 -56.61209801 131.43177411 -63.375 138.875 C-66.70738787 142.7983532 -70.3443482 146.38184937 -74 150 C-79.38977552 155.33972005 -84.5228579 160.77703612 -89.34765625 166.63671875 C-92.07377661 169.94641228 -94.83940512 173.09566957 -98 176 C-98.66 176 -99.32 176 -100 176 C-100.27328125 176.58910156 -100.5465625 177.17820312 -100.828125 177.78515625 C-103.28550438 182.42960328 -106.92027279 186.10405615 -110.9375 189.4375 C-114.11320691 192.09472415 -116.65554814 194.93252569 -119.328125 198.078125 C-120.74488099 199.70673236 -122.26908569 201.24088379 -123.8125 202.75 C-126.02623524 204.78243686 -126.02623524 204.78243686 -126.91040039 206.93725586 C-128.17289103 209.32730368 -129.53926802 210.54200993 -131.62109375 212.25390625 C-135.98435762 215.94953462 -140.03259184 219.88413941 -144.0625 223.9375 C-144.73087891 224.60201172 -145.39925781 225.26652344 -146.08789062 225.95117188 C-150.59642902 230.46847322 -154.85088276 235.15185767 -159 240 C-162.87812752 244.47990593 -166.75634665 248.85738602 -171 253 C-177.10261808 258.91267018 -177.10261808 258.91267018 -182.75 265.25 C-185.89271859 269.0911005 -189.46075551 272.47435676 -193.0078125 275.9375 C-194.04692091 276.9582866 -195.08598295 277.97912041 -196.125 279 C-196.64964844 279.50789063 -197.17429687 280.01578125 -197.71484375 280.5390625 C-200.7169027 283.5031207 -202.8531771 286.3415089 -205 290 C-208.5655396 292.3770264 -210.07871361 292.24340923 -214.30737305 292.22705078 C-216.25905647 292.22682419 -216.25905647 292.22682419 -218.25016785 292.22659302 C-219.67068637 292.21637969 -221.09120333 292.2059477 -222.51171875 292.1953125 C-223.96474513 292.19158183 -225.41777403 292.18873511 -226.87080383 292.18673706 C-230.69311482 292.17910481 -234.51527354 292.15945992 -238.33752441 292.1373291 C-242.2386672 292.11686183 -246.13983461 292.10773346 -250.04101562 292.09765625 C-257.69407979 292.07621357 -265.34701855 292.04208264 -273 292 C-272.06002475 290.89807347 -271.1192803 289.79680307 -270.17822266 288.69580078 C-269.65443024 288.0824588 -269.13063782 287.46911682 -268.5909729 286.83718872 C-265.79448013 283.60791626 -262.87796626 280.49068873 -259.96875 277.36328125 C-257.79983599 275.01668785 -255.74152439 272.66480371 -253.7890625 270.1328125 C-253.19867188 269.42898438 -252.60828125 268.72515625 -252 268 C-251.34 268 -250.68 268 -250 268 C-250 267.34 -250 266.68 -250 266 C-248.37531008 264.27049138 -246.71419474 262.63862699 -245 261 C-243.53708465 259.56716329 -242.07915514 258.12922646 -240.625 256.6875 C-239.56152344 255.64142578 -239.56152344 255.64142578 -238.4765625 254.57421875 C-235.84465343 251.83852777 -233.36697118 248.99993569 -230.87841797 246.13452148 C-227.74833392 242.57768176 -224.50188672 239.13274857 -221.25 235.6875 C-220.20501343 234.57773804 -220.20501343 234.57773804 -219.13891602 233.44555664 C-214.29530277 228.32073373 -209.34831301 223.32297414 -204.3359375 218.36328125 C-200.25885257 214.23847125 -196.46782864 209.9126252 -192.9375 205.3125 C-190.57236578 202.48959787 -187.8300332 200.34832542 -185 198 C-183.99426222 196.67098936 -182.99204592 195.33926199 -182 194 C-181.34 194 -180.68 194 -180 194 C-179.72800781 193.41089844 -179.45601563 192.82179688 -179.17578125 192.21484375 C-178.0244625 190.04608053 -176.80016325 188.40493585 -175.1875 186.5625 C-174.70667969 186.00691406 -174.22585938 185.45132813 -173.73046875 184.87890625 C-170.71513128 181.60491681 -167.51922008 178.51232778 -164.3515625 175.38671875 C-159.65677932 170.73901792 -155.09736525 166.05662255 -150.80859375 161.02734375 C-147.82716225 157.68530714 -144.59906354 154.5918241 -141.4140625 151.4453125 C-138.71248706 148.70876521 -136.20921265 145.85020634 -133.7109375 142.9296875 C-131.88200137 140.86691479 -129.96419542 138.9340928 -128 137 C-123.52858928 132.58901375 -119.4190811 127.91119809 -115.40625 123.08203125 C-113.23118379 120.47971989 -111.22673888 118.18022834 -108.5625 116.0625 C-104.89929533 113.11406698 -102.02686034 109.58391003 -99 106 C-97.95960741 104.76975474 -96.91801497 103.54052277 -95.875 102.3125 C-95.43929687 101.79300781 -95.00359375 101.27351563 -94.5546875 100.73828125 C-91.70558379 97.55272559 -88.6131799 94.60430752 -85.5703125 91.60546875 C-80.48538576 86.57740221 -75.6176651 81.45930849 -71 76 C-63.78361669 67.4683153 -63.78361669 67.4683153 -60 64 C-59.34 64 -58.68 64 -58 64 C-57.72800781 63.41089844 -57.45601562 62.82179688 -57.17578125 62.21484375 C-56.0244625 60.04608053 -54.80016325 58.40493585 -53.1875 56.5625 C-52.70667969 56.00691406 -52.22585938 55.45132813 -51.73046875 54.87890625 C-48.65910846 51.54408842 -45.40096567 48.39597439 -42.17578125 45.2109375 C-41.2213417 44.26563759 -40.26691468 43.32032502 -39.3125 42.375 C-38.82716797 41.89804687 -38.34183594 41.42109375 -37.84179688 40.9296875 C-35.60414685 38.70746954 -33.7575391 36.63630864 -32 34 C-31.34 34 -30.68 34 -30 34 C-29.62875 33.13568359 -29.62875 33.13568359 -29.25 32.25390625 C-27.81305755 29.6629194 -26.14041667 27.97955193 -24 25.9375 C-21.62557202 23.66346144 -19.83652048 21.75478071 -18 19 C-17.34 19 -16.68 19 -16 19 C-15.75894531 18.43023437 -15.51789063 17.86046875 -15.26953125 17.2734375 C-13.75271334 14.55716666 -11.93237093 12.77554863 -9.6875 10.625 C-6.9803623 7.98761142 -4.37939105 5.37510596 -2 2.4375 C-1.34 1.633125 -0.68 0.82875 0 0 Z " fill="#020201" transform="translate(641,350)"/>
<path d="M0 0 C0 49.83 0 99.66 0 151 C-49.17 151 -98.34 151 -149 151 C-142.26136243 143.13825617 -142.26136243 143.13825617 -138.65234375 139.58984375 C-137.88212891 138.82736328 -137.11191406 138.06488281 -136.31835938 137.27929688 C-135.53267578 136.50650391 -134.74699219 135.73371094 -133.9375 134.9375 C-127.83042681 129.00391252 -127.83042681 129.00391252 -122.171875 122.65234375 C-120.32477073 120.39661749 -118.52662646 118.5057636 -116.3125 116.625 C-115.73113281 116.12226562 -115.14976562 115.61953125 -114.55078125 115.1015625 C-113 114 -113 114 -111 114 C-110.7215625 112.948125 -110.7215625 112.948125 -110.4375 111.875 C-108.71846306 108.43692612 -106.64240366 106.77052829 -103.65625 104.4296875 C-101.7473865 102.91075059 -101.7473865 102.91075059 -100 100 C-99.34 100 -98.68 100 -98 100 C-97.34 98.68 -96.68 97.36 -96 96 C-95.34 96 -94.68 96 -94 96 C-93.76927795 95.44363358 -93.53855591 94.88726715 -93.30084229 94.31404114 C-91.64635724 91.3709123 -89.58534614 89.35391591 -87.18652344 86.9753418 C-86.69843704 86.48856964 -86.21035065 86.00179749 -85.70747375 85.50027466 C-84.0959918 83.8952722 -82.47765051 82.29736864 -80.859375 80.69921875 C-79.73266491 79.57878485 -78.60647228 78.45783039 -77.48077393 77.33638 C-74.51498024 74.38388376 -71.54367941 71.43699802 -68.57073975 68.49169922 C-63.82585256 63.78991701 -59.08755753 59.0815178 -54.35266876 54.36966896 C-52.70560199 52.73273819 -51.0551149 51.09931699 -49.40423584 49.4662323 C-44.37777171 44.47938552 -39.55309255 39.42935675 -35 34 C-32.5 32 -32.5 32 -30 30 C-28.42460598 28.26502061 -26.92156636 26.48095336 -25.41796875 24.68359375 C-23.71373415 22.66010859 -21.97446056 20.76291121 -20 19 C-19.34 19 -18.68 19 -18 19 C-17.34 17.68 -16.68 16.36 -16 15 C-15.34 15 -14.68 15 -14 15 C-13.34 13.68 -12.68 12.36 -12 11 C-11.34 11 -10.68 11 -10 11 C-9.61521484 10.12601562 -9.61521484 10.12601562 -9.22265625 9.234375 C-7.89214174 6.80289161 -6.41556987 5.18264447 -4.4375 3.25 C-3.81746094 2.63640625 -3.19742188 2.0228125 -2.55859375 1.390625 C-1 0 -1 0 0 0 Z " fill="#000000" transform="translate(642,491)"/>
<path d="M0 0 C48.84 0 97.68 0 148 0 C144.94862492 4.57706262 142.82385629 7.34813966 139 11 C137.5853848 12.40413657 136.17367372 13.8112014 134.76391602 15.22021484 C133.96280899 16.01809418 133.16170197 16.81597351 132.33631897 17.63803101 C129.17709544 20.78562498 126.0197454 23.93509351 122.86300755 27.08518028 C120.47501885 29.46795133 118.08610108 31.84977543 115.69506836 34.22949219 C112.92019877 36.99132279 110.14946639 39.75728361 107.37890625 42.5234375 C106.52873428 43.36844818 105.67856232 44.21345886 104.80262756 45.08407593 C100.31667499 49.56960721 96.07000778 54.13440734 92 59 C90.68612831 60.35251497 89.35573748 61.68945377 88 63 C86.948125 64.11375 86.948125 64.11375 85.875 65.25 C84 67 84 67 82 67 C81.01 68.98 81.01 68.98 80 71 C79.34 71 78.68 71 78 71 C77.74688553 71.57875885 77.49377106 72.1575177 77.23298645 72.7538147 C75.85386513 75.26622028 74.30889695 76.92484254 72.2722168 78.93896484 C71.50769699 79.7001059 70.74317719 80.46124695 69.95549011 81.24545288 C69.12842056 82.05906281 68.30135101 82.87267273 67.44921875 83.7109375 C66.59826126 84.55669342 65.74730377 85.40244934 64.87055969 86.27383423 C62.14757014 88.9790067 59.41800821 91.67741843 56.6875 94.375 C53.96854898 97.06626803 51.25108706 99.75899663 48.53657532 102.45474243 C46.84761577 104.13152024 45.15598985 105.80561778 43.46134949 107.47665405 C40.21911855 110.69152662 37.01887562 113.8737143 34.12426758 117.40869141 C32 120 32 120 29.0625 122.4375 C26.68886511 124.42360266 24.94116254 126.1533727 23 128.5 C21.096311 130.79926074 19.39316903 132.50354059 17.0625 134.4375 C13.97557752 137.02043514 11.54539123 139.73783076 9.00390625 142.83984375 C6.24918559 145.80935745 3.07536393 148.36397378 0 151 C0 101.17 0 51.34 0 0 Z " fill="#010101" transform="translate(0,0)"/>
<path d="M0 0 C0.70761475 -0.00902344 1.41522949 -0.01804688 2.14428711 -0.02734375 C7.19639074 0.00072024 11.57697755 0.87221411 16.4375 2.25 C16.4375 2.91 16.4375 3.57 16.4375 4.25 C17.13875 4.31445312 17.84 4.37890625 18.5625 4.4453125 C22.29707901 5.49058869 24.65472248 7.54303241 27.4375 10.125 C28.23087769 10.85831543 28.23087769 10.85831543 29.0402832 11.60644531 C35.42839434 17.80518361 38.98245799 25.30084046 39.4375 34.25 C39.51097656 35.27867187 39.58445312 36.30734375 39.66015625 37.3671875 C40.03528898 46.15875978 38.50588767 52.48616019 34.4375 60.25 C34.0765625 61.00152344 33.715625 61.75304687 33.34375 62.52734375 C28.82476704 70.93587989 20.30649277 75.54420559 11.4375 78.25 C1.07188254 80.65903057 -11.61880773 80.19101453 -21.01953125 74.85546875 C-22.98716038 73.41351419 -24.78275197 71.91605405 -26.5625 70.25 C-27.3875 69.5075 -28.2125 68.765 -29.0625 68 C-30.5625 66.25 -30.5625 66.25 -30.5625 64.25 C-31.2225 64.25 -31.8825 64.25 -32.5625 64.25 C-33.54919759 62.35807525 -34.5265602 60.46128022 -35.5 58.5625 C-36.31791016 56.97888672 -36.31791016 56.97888672 -37.15234375 55.36328125 C-41.39912696 45.98741914 -40.82910377 32.50781944 -37.73828125 22.78125 C-34.48390843 15.77515834 -28.90321667 9.61804926 -22.5625 5.25 C-19.6875 4.4375 -19.6875 4.4375 -17.5625 4.25 C-17.5625 3.59 -17.5625 2.93 -17.5625 2.25 C-11.64973307 0.52992235 -6.12096908 0.03202251 0 0 Z " fill="#030303" transform="translate(341.5625,248.75)"/>
<path d="M0 0 C1.89412106 2.8411816 3.24450973 5.59989616 4.6875 8.6875 C10.95877157 21.24519113 20.1631609 27.84098665 33 33 C33 33.33 33 33.66 33 34 C22.11 34 11.22 34 0 34 C0 22.78 0 11.56 0 0 Z " fill="#FEFEFC" transform="translate(0,608)"/>
<path d="M0 0 C7.92 0 15.84 0 24 0 C19 4 19 4 16.97265625 5.60546875 C9.18534144 12.05508531 4.73866324 19.69732617 1 29 C0.67 29 0.34 29 0 29 C0 19.43 0 9.86 0 0 Z " fill="#FAFAFA" transform="translate(0,0)"/>
<path d="M0 0 C0.33 0 0.66 0 1 0 C1 7.59 1 15.18 1 23 C-8.9 23 -18.8 23 -29 23 C-26.94288734 21.97144367 -24.88103665 20.9480318 -22.7734375 20.02734375 C-13.02394702 15.59720068 -5.86064992 8.88550149 0 0 Z " fill="#F9F9F9" transform="translate(641,619)"/>
<path d="M0 0 C6.6 0 13.2 0 20 0 C20 6.27 20 12.54 20 19 C17.3796878 16.3796878 15.11838119 13.96037983 12.8125 11.125 C9.540547 7.31957641 5.98586153 4.74092017 1.72265625 2.12890625 C1.15417969 1.75636719 0.58570313 1.38382812 0 1 C0 0.67 0 0.34 0 0 Z " fill="#FEFDFA" transform="translate(622,0)"/>
<path d="M0 0 C0 3.61835841 -0.63226798 4.07670878 -3.0012207 6.67602539 C-3.64346588 7.38252228 -4.28571106 8.08901917 -4.94741821 8.81692505 C-8.24316071 12.32219482 -11.58876189 15.77114777 -14.98046875 19.18359375 C-15.71574295 19.92456802 -16.45101715 20.6655423 -17.20857239 21.42897034 C-18.74923621 22.97900779 -20.29130188 24.52765304 -21.8347168 26.07495117 C-24.19846804 28.44851356 -26.55134841 30.83253122 -28.90429688 33.21679688 C-30.40819634 34.72721777 -31.91273114 36.2370064 -33.41796875 37.74609375 C-34.11907272 38.45954453 -34.8201767 39.1729953 -35.54252625 39.9080658 C-36.20033585 40.5628743 -36.85814545 41.2176828 -37.53588867 41.89233398 C-38.10989914 42.46999008 -38.68390961 43.04764618 -39.27531433 43.64280701 C-41.18022655 45.14182423 -42.63124045 45.59388814 -45 46 C-44.34 45.01 -43.68 44.02 -43 43 C-42.34 43 -41.68 43 -41 43 C-40.74852203 42.42320496 -40.49704407 41.84640991 -40.23794556 41.25213623 C-38.83873256 38.70661371 -37.25275923 37.01241884 -35.19287109 34.96582031 C-34.41221283 34.18531311 -33.63155457 33.40480591 -32.82723999 32.60064697 C-31.98448517 31.76821472 -31.14173035 30.93578247 -30.2734375 30.078125 C-29.41062164 29.21813904 -28.54780579 28.35815308 -27.65884399 27.47210693 C-24.90221971 24.7266769 -22.13872201 21.9882831 -19.375 19.25 C-17.50475143 17.38978217 -15.63495411 15.52911054 -13.765625 13.66796875 C-9.1823064 9.10670055 -4.59332522 4.55118989 0 0 Z " fill="#373737" transform="translate(589,544)"/>
<path d="M0 0 C0.33 0 0.66 0 1 0 C1.05022978 5.1188013 1.08610264 10.23745259 1.10986328 15.35644531 C1.11979055 17.09019476 1.13333681 18.82392807 1.15087891 20.55761719 C1.26185107 31.82455543 1.03868562 42.88194264 -1 54 C-1.495 54.495 -1.495 54.495 -2 55 C-2.39569108 57.01311449 -2.74252191 59.03597208 -3.0625 61.0625 C-3.23910156 62.16722656 -3.41570312 63.27195312 -3.59765625 64.41015625 C-3.73042969 65.26480469 -3.86320312 66.11945313 -4 67 C-4.33 67 -4.66 67 -5 67 C-4.67 61.72 -4.34 56.44 -4 51 C-3.67 51 -3.34 51 -3 51 C-0.35897025 39.26101622 -0.78566062 26.56054144 -0.4375 14.5625 C-0.39412695 13.13736226 -0.35050811 11.71223198 -0.30664062 10.28710938 C-0.20161157 6.85815367 -0.09984585 3.42911103 0 0 Z " fill="#262010" transform="translate(513,268)"/>
<path d="M0 0 C0 3.80672941 -0.75360239 4.91120329 -3 8 C-4.2495575 9.12818768 -5.52304076 10.2301432 -6.8125 11.3125 C-10.34717514 14.28395767 -12.95815445 17.40391624 -15.6328125 21.1484375 C-18.80722731 25.44750213 -22.79301257 28.7546097 -27 32 C-27.66 31.67 -28.32 31.34 -29 31 C-28.51789063 30.52949219 -28.03578125 30.05898438 -27.5390625 29.57421875 C-26.90742188 28.95160156 -26.27578125 28.32898438 -25.625 27.6875 C-24.68527344 26.76517578 -24.68527344 26.76517578 -23.7265625 25.82421875 C-21.81913393 23.91187472 -21.81913393 23.91187472 -20 21 C-19.34 21 -18.68 21 -18 21 C-18 20.34 -18 19.68 -18 19 C-16.37516548 17.27033745 -14.71409259 15.63905167 -13 14 C-6.12705153 7.33684124 -6.12705153 7.33684124 0 0 Z " fill="#352A18" transform="translate(409,597)"/>
<path d="M0 0 C-10.64374649 3.25519985 -19.98101456 5.04879312 -31.125 5.125 C-32.12926025 5.13225098 -32.12926025 5.13225098 -33.15380859 5.13964844 C-37.54356975 5.12448519 -41.68193674 4.70659217 -46 4 C-46 3.67 -46 3.34 -46 3 C-45.33170166 2.98541748 -44.66340332 2.97083496 -43.97485352 2.95581055 C-26.43764418 2.5491522 -26.43764418 2.5491522 -9.12915039 -0.0715332 C-5.77424803 -0.78720544 -3.26359363 -1.23309583 0 0 Z " fill="#868686" transform="translate(373,378)"/>
<path d="M0 0 C0.66 0.33 1.32 0.66 2 1 C-0.12743608 4.86669782 -2.53193427 7.76719625 -5.66796875 10.86328125 C-6.56064453 11.74951172 -7.45332031 12.63574219 -8.37304688 13.54882812 C-9.30181641 14.46083984 -10.23058594 15.37285156 -11.1875 16.3125 C-12.1378315 17.2527888 -13.087706 18.19353971 -14.03710938 19.13476562 C-16.35362123 21.42775959 -18.67467801 23.71594652 -21 26 C-21.99 25.67 -22.98 25.34 -24 25 C-23.45061768 24.45585449 -22.90123535 23.91170898 -22.33520508 23.35107422 C-19.82495765 20.86173449 -17.31870516 18.36840907 -14.8125 15.875 C-13.94818359 15.0190625 -13.08386719 14.163125 -12.19335938 13.28125 C-7.90287305 9.00720232 -3.76074699 4.74959765 0 0 Z " fill="#2D2D2D" transform="translate(522,611)"/>
<path d="M0 0 C0 4.96900824 -3.69593676 7.51864556 -7 11 C-7.5038623 11.53109375 -8.00772461 12.0621875 -8.52685547 12.609375 C-10.21462454 14.37623493 -11.91702564 16.12767584 -13.625 17.875 C-14.17502686 18.44653809 -14.72505371 19.01807617 -15.29174805 19.60693359 C-18.32584381 22.66522906 -20.75974805 24.75472155 -25 26 C-24.01 24.515 -24.01 24.515 -23 23 C-22.34 23 -21.68 23 -21 23 C-20.75975098 22.4337793 -20.51950195 21.86755859 -20.27197266 21.28417969 C-18.73804889 18.52959413 -16.89273982 16.66750329 -14.6484375 14.453125 C-13.37226562 13.18662109 -13.37226562 13.18662109 -12.0703125 11.89453125 C-11.18085937 11.02183594 -10.29140625 10.14914063 -9.375 9.25 C-8.4778125 8.36183594 -7.580625 7.47367187 -6.65625 6.55859375 C-4.44192996 4.36783031 -2.22307565 2.18187237 0 0 Z " fill="#C2C2C2" transform="translate(57,93)"/>
<path d="M0 0 C0.66 0.33 1.32 0.66 2 1 C-1.2452962 6.36979423 -5.27206641 10.50711014 -9.75 14.875 C-10.44738281 15.56335938 -11.14476563 16.25171875 -11.86328125 16.9609375 C-13.57103343 18.64529582 -15.28329443 20.32477617 -17 22 C-17.99 21.67 -18.98 21.34 -20 21 C-19.42967041 20.43490723 -18.85934082 19.86981445 -18.27172852 19.28759766 C-15.69939325 16.73599645 -13.13090663 14.18055542 -10.5625 11.625 C-9.66466797 10.73554687 -8.76683594 9.84609375 -7.84179688 8.9296875 C-6.98779297 8.07890625 -6.13378906 7.228125 -5.25390625 6.3515625 C-4.46314697 5.56604004 -3.6723877 4.78051758 -2.85766602 3.97119141 C-0.94628982 2.13255698 -0.94628982 2.13255698 0 0 Z " fill="#D2D2D2" transform="translate(78,71)"/>
<path d="M0 0 C0 3.6987636 -0.84352062 4.35773852 -3.25 7.0625 C-4.15492188 8.10083984 -4.15492188 8.10083984 -5.078125 9.16015625 C-6.97865486 10.97956594 -8.65399419 11.87211259 -11 13 C-11.33 13.66 -11.66 14.32 -12 15 C-13.24508396 17.49016793 -14.46716796 17.98686718 -17 19 C-15.87994369 15.63983107 -14.62788203 14.30935087 -12 12 C-11.34 12 -10.68 12 -10 12 C-9.75507813 11.42765625 -9.51015625 10.8553125 -9.2578125 10.265625 C-7.78889901 7.61975598 -6.04651756 5.85146861 -3.875 3.75 C-3.15054687 3.04359375 -2.42609375 2.3371875 -1.6796875 1.609375 C-1.12539063 1.07828125 -0.57109375 0.5471875 0 0 Z " fill="#C2C2C2" transform="translate(470,602)"/>
<path d="M0 0 C0 4.72879552 -3.15683701 7.39866021 -6 11 C-6.680625 11.969375 -7.36125 12.93875 -8.0625 13.9375 C-10.33799188 16.35979781 -11.73717747 16.72809812 -15 17 C-10.10995345 11.23225279 -5.07515796 5.60523001 0 0 Z " fill="#312716" transform="translate(505,495)"/>
<path d="M0 0 C0.33 0.99 0.66 1.98 1 3 C-0.1446875 3.8353125 -0.1446875 3.8353125 -1.3125 4.6875 C-4.00402422 7.0034627 -5.25112253 8.95847397 -7 12 C-8.29579647 13.36984198 -9.61992749 14.7151049 -11 16 C-11.99 15.67 -12.98 15.34 -14 15 C-10.84554667 11.12452876 -7.68847454 7.38940904 -4 4 C-3.34 4 -2.68 4 -2 4 C-1.34 2.68 -0.68 1.36 0 0 Z " fill="#352A17" transform="translate(585,410)"/>
<path d="M0 0 C0.70125 0.144375 1.4025 0.28875 2.125 0.4375 C3.548125 0.7159375 3.548125 0.7159375 5 1 C5.845625 1.185625 6.69125 1.37125 7.5625 1.5625 C15.03842187 2.51398097 22.58768028 2.3476945 30 1 C29 3 29 3 27.42578125 3.6171875 C24.01352332 4.15567587 20.63184609 4.14408225 17.1875 4.125 C16.50107422 4.12886719 15.81464844 4.13273437 15.10742188 4.13671875 C10.64144643 4.12826847 6.40685936 3.72583566 2 3 C2 2.34 2 1.68 2 1 C1.34 0.67 0.68 0.34 0 0 Z " fill="#A0A0A0" transform="translate(325,325)"/>
<path d="M0 0 C0 3.59734407 -0.68031389 4.34893016 -3 7 C-6.53571429 10 -6.53571429 10 -9 10 C-9.33 10.66 -9.66 11.32 -10 12 C-11.32 11.67 -12.64 11.34 -14 11 C-10.25 8 -10.25 8 -8 8 C-8 7.34 -8 6.68 -8 6 C-6.25 4.4921875 -6.25 4.4921875 -4 2.875 C-3.2575 2.33617187 -2.515 1.79734375 -1.75 1.2421875 C-1.1725 0.83226562 -0.595 0.42234375 0 0 Z " fill="#BCA04F" transform="translate(455,418)"/>
<path d="M0 0 C0.33 0 0.66 0 1 0 C1.22178727 5.54468175 0.86009297 9.72973658 -1 15 C-1.75921421 18.98587463 -2.38988922 22.98884613 -3 27 C-3.33 27 -3.66 27 -4 27 C-3.67 21.72 -3.34 16.44 -3 11 C-2.67 11 -2.34 11 -2 11 C-1.34 7.37 -0.68 3.74 0 0 Z " fill="#41371D" transform="translate(512,308)"/>
<path d="M0 0 C1.3609623 2.7219246 0.70366248 4.1831957 0.0625 7.125 C-0.13214844 8.03507813 -0.32679688 8.94515625 -0.52734375 9.8828125 C-0.68332031 10.58148438 -0.83929688 11.28015625 -1 12 C-1.66 12 -2.32 12 -3 12 C-3.33 14.97 -3.66 17.94 -4 21 C-4.66 21 -5.32 21 -6 21 C-5.02125692 13.38898472 -3.5535119 6.83102288 0 0 Z " fill="#514924" transform="translate(179,228)"/>
<path d="M0 0 C1 2 1 2 0.43359375 4.3125 C-2.28278323 11.64139161 -2.28278323 11.64139161 -6.25 13.625 C-7.1575 13.74875 -8.065 13.8725 -9 14 C-7.45158425 10.65291949 -5.50894136 7.75332488 -3.375 4.75 C-2.74335938 3.85796875 -2.11171875 2.9659375 -1.4609375 2.046875 C-0.73777344 1.03367187 -0.73777344 1.03367187 0 0 Z " fill="#B79A4C" transform="translate(486,382)"/>
<path d="M0 0 C0.66 0.33 1.32 0.66 2 1 C-1.16589254 6.40839975 -5.17514834 10.04174791 -10 14 C-10.66 13.67 -11.32 13.34 -12 13 C-11.21753906 12.22914063 -10.43507813 11.45828125 -9.62890625 10.6640625 C-8.60663943 9.65117427 -7.58451119 8.63814616 -6.5625 7.625 C-6.04623047 7.11710938 -5.52996094 6.60921875 -4.99804688 6.0859375 C-2.142867 3.31431064 -2.142867 3.31431064 0 0 Z " fill="#313131" transform="translate(602,530)"/>
<path d="M0 0 C0.33 0.66 0.66 1.32 1 2 C-2.95825209 6.82485166 -6.59160025 10.83410746 -12 14 C-10.41332422 10.09714233 -7.86649519 7.66479018 -4.875 4.75 C-3.96492187 3.85796875 -3.05484375 2.9659375 -2.1171875 2.046875 C-1.41851563 1.37140625 -0.71984375 0.6959375 0 0 Z " fill="#BABABA" transform="translate(592,473)"/>
<path d="M0 0 C0.66 0.33 1.32 0.66 2 1 C-0.37754788 5.49092377 -3.3606063 8.52235713 -7 12 C-7.99 11.67 -8.98 11.34 -10 11 C-9.44570312 10.45730469 -8.89140625 9.91460937 -8.3203125 9.35546875 C-7.23363281 8.28232422 -7.23363281 8.28232422 -6.125 7.1875 C-5.40570312 6.47980469 -4.68640625 5.77210938 -3.9453125 5.04296875 C-1.84641063 2.95600806 -1.84641063 2.95600806 0 0 Z " fill="#CBCBCB" transform="translate(10,140)"/>
<path d="M0 0 C0.66 0.99 1.32 1.98 2 3 C0.47005208 4.20442708 -1.05989583 5.40885417 -2.58984375 6.61328125 C-4.27155077 8.05683091 -4.27155077 8.05683091 -5 11 C-8 11 -8 11 -10 10 C-6.7 6.7 -3.4 3.4 0 0 Z " fill="#2A2214" transform="translate(516,484)"/>
<path d="M0 0 C0.66 0.66 1.32 1.32 2 2 C0.75965588 3.32162881 -0.49268626 4.63200453 -1.75 5.9375 C-2.44609375 6.66839844 -3.1421875 7.39929688 -3.859375 8.15234375 C-6.00599725 10.00517646 -7.23532932 10.60771565 -10 11 C-6.79239749 7.19364503 -3.59253891 3.45436433 0 0 Z " fill="#2C2414" transform="translate(485,517)"/>
<path d="M0 0 C0.33 0.99 0.66 1.98 1 3 C-0.09779824 4.15193623 -1.20349446 5.29634937 -2.3125 6.4375 C-2.92738281 7.07558594 -3.54226563 7.71367188 -4.17578125 8.37109375 C-6 10 -6 10 -9 11 C-7.59155282 7.78475695 -5.89655214 5.67816132 -3.375 3.25 C-2.74335938 2.63640625 -2.11171875 2.0228125 -1.4609375 1.390625 C-0.73777344 0.70226562 -0.73777344 0.70226562 0 0 Z " fill="#3E321C" transform="translate(449,555)"/>
<path d="M0 0 C0.625 1.8125 0.625 1.8125 1 4 C0.01 5.485 0.01 5.485 -1 7 C-2.32 7 -3.64 7 -5 7 C-5.33 7.99 -5.66 8.98 -6 10 C-6.66 9.67 -7.32 9.34 -8 9 C-6.625 7 -6.625 7 -5 5 C-4.34 5 -3.68 5 -3 5 C-2.690625 4.360625 -2.38125 3.72125 -2.0625 3.0625 C-1 1 -1 1 0 0 Z " fill="#BCAD52" transform="translate(100,185)"/>
<path d="M0 0 C0.33 1.32 0.66 2.64 1 4 C-3.455 7.465 -3.455 7.465 -8 11 C-8.66 10.67 -9.32 10.34 -10 10 C-6.66666667 6.66666667 -3.33333333 3.33333333 0 0 Z " fill="#B3984B" transform="translate(466,407)"/>
<path d="M0 0 C0.33 1.32 0.66 2.64 1 4 C-1.31 5.98 -3.62 7.96 -6 10 C-6.66 9.67 -7.32 9.34 -8 9 C-5.36 6.03 -2.72 3.06 0 0 Z " fill="#B9AB52" transform="translate(265,9)"/>
<path d="M0 0 C0 3.63053243 -1.2278255 4.95750337 -3.5546875 7.63671875 C-5.49136818 9.46347972 -7.46012234 10.27432067 -10 11 C-9.34 10.01 -8.68 9.02 -8 8 C-7.34 8 -6.68 8 -6 8 C-5.7525 7.4225 -5.505 6.845 -5.25 6.25 C-3.83316683 3.6997003 -2.12372463 1.98214299 0 0 Z " fill="#BCBCBC" transform="translate(539,529)"/>
<path d="M0 0 C0.33 1.32 0.66 2.64 1 4 C0.01 4.33 -0.98 4.66 -2 5 C-2.33 5.99 -2.66 6.98 -3 8 C-5.5625 9.1875 -5.5625 9.1875 -8 10 C-7.21654285 8.82780457 -6.42297164 7.66236332 -5.625 6.5 C-5.18414062 5.8503125 -4.74328125 5.200625 -4.2890625 4.53125 C-3.86367188 4.0259375 -3.43828125 3.520625 -3 3 C-2.34 3 -1.68 3 -1 3 C-0.67 2.01 -0.34 1.02 0 0 Z " fill="#AF9449" transform="translate(476,396)"/>
<path d="M0 0 C0.99 0.33 1.98 0.66 3 1 C0.36 3.64 -2.28 6.28 -5 9 C-5.66 8.34 -6.32 7.68 -7 7 C-4.69 4.69 -2.38 2.38 0 0 Z " fill="#D0BE5A" transform="translate(141,142)"/>
<path d="M0 0 C0.66 0.33 1.32 0.66 2 1 C0.625 3.5 0.625 3.5 -1 6 C-1.66 6 -2.32 6 -3 6 C-3.33 6.99 -3.66 7.98 -4 9 C-6.0625 9.6875 -6.0625 9.6875 -8 10 C-7.59007812 9.52949219 -7.18015625 9.05898437 -6.7578125 8.57421875 C-6.21898437 7.95160156 -5.68015625 7.32898438 -5.125 6.6875 C-4.59132812 6.07261719 -4.05765625 5.45773438 -3.5078125 4.82421875 C-1.8359553 2.86501788 -1.8359553 2.86501788 0 0 Z " fill="#B8AA51" transform="translate(217,60)"/>
<path d="M0 0 C10.55808656 1.55808656 10.55808656 1.55808656 15 6 C9.45949887 5.43174347 4.96284034 3.37113483 0 1 C0 0.67 0 0.34 0 0 Z " fill="#A1A1A1" transform="translate(302,373)"/>
<path d="M0 0 C0 3.65859288 -1.27753524 4.94596639 -3.62109375 7.63671875 C-5.25187385 9.24901975 -6.85164149 10.20431166 -9 11 C-8.67 10.01 -8.34 9.02 -8 8 C-7.34 8 -6.68 8 -6 8 C-5.7525 7.4225 -5.505 6.845 -5.25 6.25 C-3.83316683 3.6997003 -2.12372463 1.98214299 0 0 Z " fill="#493B20" transform="translate(631,361)"/>
<path d="M0 0 C0.33 0.66 0.66 1.32 1 2 C-1.31 4.64 -3.62 7.28 -6 10 C-6.99 9.67 -7.98 9.34 -9 9 C-7.37660195 7.29115995 -5.70680947 5.62553283 -4 4 C-3.34 4 -2.68 4 -2 4 C-1.34 2.68 -0.68 1.36 0 0 Z " fill="#434343" transform="translate(626,506)"/>
<path d="M0 0 C-3.465 2.97 -3.465 2.97 -7 6 C-6.625 3.0625 -6.625 3.0625 -6 0 C-4 -1 -4 -1 0 0 Z " fill="#DAB356" transform="translate(545,454)"/>
<path d="M0 0 C0.33 0.99 0.66 1.98 1 3 C-1.64 5.64 -4.28 8.28 -7 11 C-7.66 10.67 -8.32 10.34 -9 10 C-6.03 6.7 -3.06 3.4 0 0 Z " fill="#454545" transform="translate(132,81)"/>
<path d="M0 0 C2 1 2 1 2 1 Z M-4 2 C-3.01 2.33 -2.02 2.66 -1 3 C-4.465 5.97 -4.465 5.97 -8 9 C-8.66 8.67 -9.32 8.34 -10 8 C-8.02 6.02 -6.04 4.04 -4 2 Z " fill="#2C2414" transform="translate(390,620)"/>
<path d="M0 0 C0.75 1.75 0.75 1.75 1 4 C-0.9375 6.25 -0.9375 6.25 -3 8 C-3.99 7.67 -4.98 7.34 -6 7 C-5.34 6.01 -4.68 5.02 -4 4 C-3.34 4 -2.68 4 -2 4 C-1.34 2.68 -0.68 1.36 0 0 Z " fill="#BAA952" transform="translate(7,284)"/>
<path d="M0 0 C0.66 0 1.32 0 2 0 C1.65120368 3.25543229 0.97866739 4.01873107 -1.5625 6.25 C-2.366875 6.8275 -3.17125 7.405 -4 8 C-4.66 7.67 -5.32 7.34 -6 7 C-5.04882866 5.8274869 -4.08882991 4.66212985 -3.125 3.5 C-2.59132812 2.8503125 -2.05765625 2.200625 -1.5078125 1.53125 C-0.76144531 0.77328125 -0.76144531 0.77328125 0 0 Z " fill="#BFB053" transform="translate(156,125)"/>
<path d="M0 0 C0 4.03223106 -1.64129026 5.80880447 -4 9 C-4.99 9.495 -4.99 9.495 -6 10 C-5.58578031 5.16743695 -3.53586014 3.17320782 0 0 Z " fill="#C5B456" transform="translate(198,81)"/>
<path d="M0 0 C0.33 0.99 0.66 1.98 1 3 C-0.65 4.65 -2.3 6.3 -4 8 C-4.99 7.67 -5.98 7.34 -7 7 C-4.69 4.69 -2.38 2.38 0 0 Z " fill="#342A16" transform="translate(432,573)"/>
<path d="M0 0 C0.33 0.99 0.66 1.98 1 3 C-1.31 4.98 -3.62 6.96 -6 9 C-6.66 8.67 -7.32 8.34 -8 8 C-5.36 5.36 -2.72 2.72 0 0 Z " fill="#444444" transform="translate(24,196)"/>
<path d="M0 0 C0.33 0.99 0.66 1.98 1 3 C-1.64 4.98 -4.28 6.96 -7 9 C-5.04783565 5.09567131 -3.12613393 2.96160056 0 0 Z " fill="#A8A8A8" transform="translate(495,575)"/>
<path d="M0 0 C0 4.38968456 -2.12805101 5.76905739 -5 9 C-5.66 8.67 -6.32 8.34 -7 8 C-4.69 5.36 -2.38 2.72 0 0 Z " fill="#3E331A" transform="translate(524,475)"/>
<path d="M0 0 C0.33 0.99 0.66 1.98 1 3 C-1.97 5.475 -1.97 5.475 -5 8 C-5.66 7.67 -6.32 7.34 -7 7 C-4.69 4.69 -2.38 2.38 0 0 Z " fill="#484848" transform="translate(89,127)"/>
<path d="M0 0 C0.33 0.99 0.66 1.98 1 3 C-1.97 5.475 -1.97 5.475 -5 8 C-5 5 -5 5 -2.5 2.3125 C-1.675 1.549375 -0.85 0.78625 0 0 Z " fill="#342A17" transform="translate(467,536)"/>
<path d="M0 0 C1 2 1 2 0.375 4 C-1.39265071 6.57112831 -3.07589059 7.07659703 -6 8 C-4.55746343 4.63408134 -2.66735273 2.48952921 0 0 Z " fill="#AB9E4D" transform="translate(256,19)"/>
<path d="M0 0 C0.33 0.66 0.66 1.32 1 2 C-0.32 3.65 -1.64 5.3 -3 7 C-3.99 6.67 -4.98 6.34 -6 6 C-4.02 4.02 -2.04 2.04 0 0 Z " fill="#B6B6B6" transform="translate(481,590)"/>
<path d="M0 0 C0.33 0.66 0.66 1.32 1 2 C-0.32 3.65 -1.64 5.3 -3 7 C-3.99 6.67 -4.98 6.34 -6 6 C-4.02 4.02 -2.04 2.04 0 0 Z " fill="#C9C9C9" transform="translate(592,473)"/>
<path d="M0 0 C0.33 0.66 0.66 1.32 1 2 C-0.32 3.65 -1.64 5.3 -3 7 C-3.99 6.67 -4.98 6.34 -6 6 C-4.02 4.02 -2.04 2.04 0 0 Z " fill="#B8B8B8" transform="translate(638,424)"/>
<path d="M0 0 C0 0.99 0 1.98 0 3 C-2.5 5.1875 -2.5 5.1875 -5 7 C-5.66 6.67 -6.32 6.34 -7 6 C-4.69 4.02 -2.38 2.04 0 0 Z " fill="#D1C05B" transform="translate(50,240)"/>
<path d="M0 0 C0.33 0.66 0.66 1.32 1 2 C-0.32 3.65 -1.64 5.3 -3 7 C-3.99 6.67 -4.98 6.34 -6 6 C-4.02 4.02 -2.04 2.04 0 0 Z " fill="#3A3A3A" transform="translate(209,0)"/>
</svg>
